HIERARCHY
ROOT Hips
{
	OFFSET 0.000000 35.082581 0.000000
	CHANNELS 6 Xposition Yposition Zposition Xrotation Yrotation Zrotation 
	JOINT Spine
	{
		OFFSET 0.000000 6.876099 0.125700
		CHANNELS 3 Xrotation Yrotation Zrotation
		JOINT Spine1
		{
			OFFSET 0.000000 5.730043 0.104720
			CHANNELS 3 Xrotation Yrotation Zrotation
			JOINT Spine1_split
			{
				OFFSET 0.000000 5.730043 0.104720
				CHANNELS 3 Xrotation Yrotation Zrotation
				JOINT Spine2
				{
					OFFSET 0.000000 5.730043 0.104720
					CHANNELS 3 Xrotation Yrotation Zrotation
					JOINT Neck
					{
						OFFSET 0.000000 10.314075 0.188496
						CHANNELS 3 Xrotation Yrotation Zrotation
						JOINT Head
						{
							OFFSET 0.000000 7.643700 -2.377400
							CHANNELS 3 Xrotation Yrotation Zrotation
							JOINT HeadTop_End
							{
								OFFSET 0.000000 43.788605 -13.619600
								CHANNELS 3 Xrotation Yrotation Zrotation
								End Site
								{
									OFFSET 0.000000 0.000000 0.000000
								}
							}
						}
					}
					JOINT LeftShoulder
					{
						OFFSET 2.196100 4.412489 0.087492
						CHANNELS 3 Xrotation Yrotation Zrotation
						JOINT LeftShoulder_split
						{
							OFFSET 2.196100 4.412489 0.087492
							CHANNELS 3 Xrotation Yrotation Zrotation
							JOINT LeftArm
							{
								OFFSET 8.771219 -2.981674 -0.026999
								CHANNELS 3 Xrotation Yrotation Zrotation
								JOINT LeftForeArm
								{
									OFFSET 8.512804 0.000000 -0.000000
									CHANNELS 3 Xrotation Yrotation Zrotation
									JOINT LeftHand
									{
										OFFSET 18.484802 0.000000 -0.000000
										CHANNELS 3 Xrotation Yrotation Zrotation
										JOINT LeftHandThumb1
										{
											OFFSET 2.499420 -1.158070 2.653252
											CHANNELS 3 Xrotation Yrotation Zrotation
											JOINT LeftHandThumb2
											{
												OFFSET 2.370079 -1.368366 1.368366
												CHANNELS 3 Xrotation Yrotation Zrotation
												JOINT LeftHandThumb3
												{
													OFFSET 2.676727 -1.545410 1.545409
													CHANNELS 3 Xrotation Yrotation Zrotation
													JOINT LeftHandThumb4
													{
														OFFSET 1.692226 -0.977005 0.977007
														CHANNELS 3 Xrotation Yrotation Zrotation
														End Site
														{
															OFFSET 0.000000 0.000000 0.000000
														}
													}
												}
											}
										}
										JOINT LeftHandIndex1
										{
											OFFSET 7.924831 -0.457527 2.345128
											CHANNELS 3 Xrotation Yrotation Zrotation
											JOINT LeftHandIndex2
											{
												OFFSET 3.643303 0.000000 0.000000
												CHANNELS 3 Xrotation Yrotation Zrotation
												JOINT LeftHandIndex3
												{
													OFFSET 3.810799 0.000000 0.000000
													CHANNELS 3 Xrotation Yrotation Zrotation
													JOINT LeftHandIndex4
													{
														OFFSET 2.403702 0.000000 0.000000
														CHANNELS 3 Xrotation Yrotation Zrotation
														End Site
														{
															OFFSET 0.000000 0.000000 0.000000
														}
													}
												}
											}
										}
										JOINT LeftHandMiddle1
										{
											OFFSET 8.563995 0.000000 -0.000000
											CHANNELS 3 Xrotation Yrotation Zrotation
											JOINT LeftHandMiddle2
											{
												OFFSET 3.861618 0.000000 0.000000
												CHANNELS 3 Xrotation Yrotation Zrotation
												JOINT LeftHandMiddle3
												{
													OFFSET 3.701603 0.000000 0.000000
													CHANNELS 3 Xrotation Yrotation Zrotation
													JOINT LeftHandMiddle4
													{
														OFFSET 2.322544 0.000000 0.000000
														CHANNELS 3 Xrotation Yrotation Zrotation
														End Site
														{
															OFFSET 0.000000 0.000000 0.000000
														}
													}
												}
											}
										}
										JOINT LeftHandRing1
										{
											OFFSET 8.426460 -0.424637 -3.286992
											CHANNELS 3 Xrotation Yrotation Zrotation
											JOINT LeftHandRing2
											{
												OFFSET 3.126408 0.000000 0.000000
												CHANNELS 3 Xrotation Yrotation Zrotation
												JOINT LeftHandRing3
												{
													OFFSET 3.085026 0.000000 0.000000
													CHANNELS 3 Xrotation Yrotation Zrotation
													JOINT LeftHandRing4
													{
														OFFSET 1.644005 0.000000 0.000000
														CHANNELS 3 Xrotation Yrotation Zrotation
														End Site
														{
															OFFSET 0.000000 0.000000 0.000000
														}
													}
												}
											}
										}
									}
								}
							}
						}
					}
					JOINT RightShoulder
					{
						OFFSET -2.196100 4.412496 0.070690
						CHANNELS 3 Xrotation Yrotation Zrotation
						JOINT RightShoulder_split
						{
							OFFSET -2.196100 4.412496 0.070690
							CHANNELS 3 Xrotation Yrotation Zrotation
							JOINT RightArm
							{
								OFFSET -8.771282 -2.981682 -0.094208
								CHANNELS 3 Xrotation Yrotation Zrotation
								JOINT RightForeArm
								{
									OFFSET -8.494598 0.000000 0.000000
									CHANNELS 3 Xrotation Yrotation Zrotation
									JOINT RightHand
									{
										OFFSET -18.483803 0.000000 0.000001
										CHANNELS 3 Xrotation Yrotation Zrotation
										JOINT RightHandThumb1
										{
											OFFSET -2.527351 -1.008072 2.575253
											CHANNELS 3 Xrotation Yrotation Zrotation
											JOINT RightHandThumb2
											{
												OFFSET -2.321518 -1.340328 1.340329
												CHANNELS 3 Xrotation Yrotation Zrotation
												JOINT RightHandThumb3
												{
													OFFSET -2.657753 -1.534454 1.534455
													CHANNELS 3 Xrotation Yrotation Zrotation
													JOINT RightHandThumb4
													{
														OFFSET -1.807510 -1.043568 1.043567
														CHANNELS 3 Xrotation Yrotation Zrotation
														End Site
														{
															OFFSET 0.000000 0.000000 0.000000
														}
													}
												}
											}
										}
										JOINT RightHandIndex1
										{
											OFFSET -8.811420 0.015533 2.887987
											CHANNELS 3 Xrotation Yrotation Zrotation
											JOINT RightHandIndex2
											{
												OFFSET -3.537502 0.000000 0.000000
												CHANNELS 3 Xrotation Yrotation Zrotation
												JOINT RightHandIndex3
												{
													OFFSET -3.356201 0.000000 0.000000
													CHANNELS 3 Xrotation Yrotation Zrotation
													JOINT RightHandIndex4
													{
														OFFSET -1.933098 0.000000 0.000000
														CHANNELS 3 Xrotation Yrotation Zrotation
														End Site
														{
															OFFSET 0.000000 0.000000 0.000000
														}
													}
												}
											}
										}
										JOINT RightHandMiddle1
										{
											OFFSET -8.178135 0.000000 0.000000
											CHANNELS 3 Xrotation Yrotation Zrotation
											JOINT RightHandMiddle2
											{
												OFFSET -3.901302 0.000000 0.000000
												CHANNELS 3 Xrotation Yrotation Zrotation
												JOINT RightHandMiddle3
												{
													OFFSET -3.909599 0.000000 0.000000
													CHANNELS 3 Xrotation Yrotation Zrotation
													JOINT RightHandMiddle4
													{
														OFFSET -2.376003 0.000000 0.000000
														CHANNELS 3 Xrotation Yrotation Zrotation
														End Site
														{
															OFFSET 0.000000 0.000000 0.000000
														}
													}
												}
											}
										}
										JOINT RightHandRing1
										{
											OFFSET -7.559013 0.014137 -2.865403
											CHANNELS 3 Xrotation Yrotation Zrotation
											JOINT RightHandRing2
											{
												OFFSET -3.449306 0.000000 0.000000
												CHANNELS 3 Xrotation Yrotation Zrotation
												JOINT RightHandRing3
												{
													OFFSET -3.362106 0.000000 0.000000
													CHANNELS 3 Xrotation Yrotation Zrotation
													JOINT RightHandRing4
													{
														OFFSET -2.076401 0.000000 0.000000
														CHANNELS 3 Xrotation Yrotation Zrotation
														End Site
														{
															OFFSET 0.000000 0.000000 0.000000
														}
													}
												}
											}
										}
									}
								}
							}
						}
					}
				}
			}
		}
	}
	JOINT LeftUpLeg
	{
		OFFSET 10.205400 -3.823500 0.155100
		CHANNELS 3 Xrotation Yrotation Zrotation
		JOINT LeftLeg
		{
			OFFSET 0.708757 -12.982077 0.567790
			CHANNELS 3 Xrotation Yrotation Zrotation
			JOINT LeftFoot
			{
				OFFSET -0.708756 -10.717838 -2.184338
				CHANNELS 3 Xrotation Yrotation Zrotation
				JOINT LeftToeBase
				{
					OFFSET 0.108149 -7.191104 7.560241
					CHANNELS 3 Xrotation Yrotation Zrotation
					JOINT LeftToe_End
					{
						OFFSET 0.070230 0.081724 4.490308
						CHANNELS 3 Xrotation Yrotation Zrotation
						End Site
						{
							OFFSET 0.000000 0.000000 0.000000
						}
					}
				}
			}
		}
	}
	JOINT RightUpLeg
	{
		OFFSET -10.205400 -3.823500 0.005500
		CHANNELS 3 Xrotation Yrotation Zrotation
		JOINT RightLeg
		{
			OFFSET -0.708756 -12.982134 0.610632
			CHANNELS 3 Xrotation Yrotation Zrotation
			JOINT RightFoot
			{
				OFFSET 0.708754 -10.717769 -1.945823
				CHANNELS 3 Xrotation Yrotation Zrotation
				JOINT RightToeBase
				{
					OFFSET -0.108140 -7.191069 7.372968
					CHANNELS 3 Xrotation Yrotation Zrotation
					JOINT RightToe_End
					{
						OFFSET -0.070227 0.081735 4.479403
						CHANNELS 3 Xrotation Yrotation Zrotation
						End Site
						{
							OFFSET 0.000000 0.000000 0.000000
						}
					}
				}
			}
		}
	}
}
MOTION
Frames: 4
Frame Time: 0.016667
1.161121 50.070255 7.350156 3.749971 -37.544088 3.199321 31.628700 -4.438124 -10.300595 14.129387 0.964742 -3.082682 0.000000 0.000000 0.000000 14.083551 0.916927 -3.297920 -8.677493 21.443473 -12.816594 -25.381082 13.620607 5.249198 -0.000002 -0.000000 0.000001 11.474066 -16.374153 4.408425 0.000000 0.000000 0.000000 -62.668809 -4.844730 -3.758218 45.767670 -24.019429 29.511133 -12.970302 31.805951 18.858169 40.109958 -15.297098 -0.360406 5.639802 28.097610 11.338688 1.088601 40.896734 22.734052 0.000001 -0.000001 -0.000002 6.882243 2.840068 -61.140411 8.247914 7.640003 -89.897939 2.146341 8.173648 -41.827795 0.000000 -0.000000 0.000001 -2.345517 4.688849 -62.655333 8.754125 9.897124 -87.051116 1.995392 4.929260 -37.483313 0.000000 -0.000000 0.000001 -9.042549 10.045653 -60.766328 8.524073 9.508830 -66.893111 6.576508 9.896712 -70.384990 -0.000001 0.000003 0.000003 18.189231 24.092154 -9.603795 0.000000 0.000000 0.000000 -33.453143 6.374195 2.980952 -41.939209 39.311140 29.275871 -2.634154 7.017176 -19.613213 -1.525701 -5.490520 13.054254 1.517219 -22.702505 -8.022597 -6.615018 18.786683 8.531378 0.000002 -0.000002 -0.000002 1.275683 4.855659 -8.441567 0.521778 0.316504 6.397948 1.551104 -1.256947 -15.009529 0.000001 0.000002 0.000001 0.864003 -5.171147 -11.645875 1.544689 -3.773590 21.274074 1.518843 3.372982 -14.229405 -0.000000 -0.000002 -0.000002 1.777572 -11.827280 -9.453280 1.762678 -2.960310 20.651854 1.681423 -2.762151 9.417824 -0.000000 0.000002 0.000002 -80.096406 -21.744700 32.902732 85.306699 0.699157 9.014062 -6.089658 0.428690 -1.887932 0.031750 -0.007721 0.000033 0.000001 0.000000 -0.000003 -130.615074 -46.578403 -4.035301 121.988736 11.889414 -14.517094 25.223282 2.756262 29.056451 0.004143 0.000162 -0.000322 -0.000001 -0.000000 0.000000 
1.159967 50.063663 7.341941 3.775814 -37.639909 3.252943 31.634550 -4.457900 -10.305746 14.124497 0.962687 -3.082691 0.000000 0.000000 0.000000 14.081426 0.915138 -3.297778 -8.636866 21.467481 -12.828427 -25.291731 13.718659 5.212692 -0.000001 0.000000 -0.000000 11.372214 -16.443332 3.967077 0.000000 0.000000 0.000000 -62.208058 -4.571387 -3.790320 45.710467 -23.896279 29.381213 -13.152786 31.668326 18.894689 40.109958 -15.297100 -0.360408 5.639798 28.097614 11.338683 1.088601 40.896738 22.734052 -0.000006 0.000002 -0.000004 6.882239 2.840068 -61.140411 8.247916 7.640005 -89.897939 2.146344 8.173649 -41.827795 -0.000001 0.000003 0.000004 -2.345521 4.688851 -62.655340 8.754121 9.897118 -87.051116 1.995386 4.929263 -37.483320 -0.000001 0.000001 0.000001 -9.042550 10.045657 -60.766328 8.524070 9.508830 -66.893104 6.576506 9.896706 -70.384983 -0.000003 -0.000001 -0.000002 18.029186 24.259176 -9.213507 0.000000 0.000000 0.000000 -32.985545 6.584508 2.975909 -41.769803 39.073689 29.004712 -2.558805 7.327793 -19.065145 -1.525705 -5.490522 13.054260 1.517219 -22.702499 -8.022596 -6.615030 18.786676 8.531374 0.000001 -0.000000 -0.000000 1.264162 4.823514 -8.200517 0.528594 0.186453 7.355376 0.908702 -0.829997 -14.364499 0.000001 -0.000005 -0.000000 0.874202 -5.218030 -11.333220 1.587303 -3.878975 22.059940 1.505049 3.329502 -13.916548 -0.000000 -0.000000 -0.000000 1.813572 -11.822575 -9.179903 1.792573 -3.024126 21.110289 1.691533 -2.800343 9.683771 -0.000000 0.000002 0.000002 -80.118645 -21.738566 32.896028 85.295204 0.626460 8.980983 -6.038756 0.557880 -1.955944 0.026815 -0.007764 0.000030 0.000002 0.000000 -0.000002 -130.395032 -46.611540 -4.026775 121.874617 11.928801 -14.527384 25.070440 2.717313 28.949118 0.004729 0.000157 -0.000341 0.000001 -0.000000 0.000002 
1.159355 50.056591 7.330913 3.802749 -37.723022 3.308398 31.627088 -4.477668 -10.307535 14.121953 0.959990 -3.082251 0.000000 0.000000 0.000000 14.068834 0.912802 -3.297113 -8.610289 21.493202 -12.821328 -25.195724 13.750095 5.199519 -0.000001 -0.000000 -0.000000 11.267102 -16.494268 3.552149 0.000000 0.000000 0.000000 -61.836407 -4.277161 -3.867895 45.655331 -23.778474 29.256675 -13.315549 31.475086 18.907565 40.109955 -15.297102 -0.360409 5.639801 28.097614 11.338687 1.088593 40.896734 22.734047 -0.000001 -0.000002 -0.000000 6.882245 2.840065 -61.140418 8.247914 7.640004 -89.897939 2.146336 8.173651 -41.827798 0.000003 0.000003 0.000003 -2.345517 4.688844 -62.655340 8.754122 9.897121 -87.051116 1.995393 4.929261 -37.483317 -0.000002 0.000002 0.000001 -9.042548 10.045655 -60.766328 8.524076 9.508827 -66.893111 6.576505 9.896706 -70.384983 0.000002 0.000001 -0.000001 17.871456 24.380046 -8.840628 0.000000 0.000000 0.000000 -32.509672 6.730314 2.966678 -41.608085 38.845168 28.745701 -2.194465 7.735458 -18.572674 -1.525704 -5.490514 13.054267 1.517218 -22.702502 -8.022600 -6.615023 18.786679 8.531372 0.000001 -0.000000 -0.000000 1.252743 4.791392 -7.959529 0.537547 0.056528 8.312885 0.255115 -0.418520 -13.711285 -0.000001 -0.000002 -0.000001 0.884687 -5.264779 -11.020555 1.631338 -3.983825 22.846018 1.491535 3.285912 -13.603663 0.000001 -0.000000 -0.000001 1.849486 -11.817702 -8.906581 1.822955 -3.087672 21.568778 1.701859 -2.838476 9.949695 0.000002 -0.000001 -0.000001 -80.133193 -21.701244 32.867096 85.278375 0.611453 8.969612 -6.086457 0.648772 -1.973269 0.022379 -0.007756 0.000022 -0.000001 -0.000001 0.000004 -130.140935 -46.654201 -4.002812 121.755253 11.983658 -14.540867 24.887095 2.671044 28.833247 0.005032 0.000187 -0.000313 -0.000000 -0.000000 0.000003 
1.164921 50.048592 7.319852 3.830842 -37.787018 3.360818 31.614043 -4.492742 -10.306973 14.106496 0.954757 -3.080989 0.000000 0.000000 0.000000 14.049171 0.908812 -3.295745 -8.563397 21.515694 -12.819799 -25.070495 13.794745 5.150473 0.000001 -0.000000 0.000001 11.178814 -16.526076 3.162622 0.000000 0.000000 0.000000 -61.569456 -3.861275 -3.799277 45.619735 -23.701723 29.176953 -13.445409 31.206390 18.883637 40.109951 -15.297105 -0.360408 5.639800 28.097605 11.338687 1.088601 40.896741 22.734046 0.000002 -0.000003 -0.000000 6.882240 2.840063 -61.140418 8.247914 7.640013 -89.897939 2.146340 8.173650 -41.827798 -0.000001 -0.000000 0.000004 -2.345520 4.688840 -62.655333 8.754119 9.897118 -87.051123 1.995390 4.929259 -37.483310 0.000000 0.000001 0.000001 -9.042551 10.045655 -60.766335 8.524074 9.508826 -66.893104 6.576507 9.896709 -70.384990 -0.000001 -0.000001 -0.000001 17.715214 24.468477 -8.495861 0.000000 0.000000 0.000000 -32.128865 6.751243 2.910642 -41.451414 38.621404 28.494038 -1.622683 7.766571 -18.155244 -1.525703 -5.490521 13.054255 1.517219 -22.702500 -8.022603 -6.615024 18.786683 8.531377 -0.000002 0.000001 -0.000003 1.241614 4.759410 -7.720700 0.548528 -0.072041 9.261822 -0.403516 -0.026195 -13.055854 -0.000000 0.000001 -0.000001 0.895316 -5.311140 -10.710608 1.676476 -4.087040 23.625242 1.478306 3.242668 -13.293606 -0.000000 0.000001 -0.000000 1.885093 -11.812664 -8.635655 1.853585 -3.150453 22.023212 1.712222 -2.876271 10.213283 -0.000001 0.000001 -0.000002 -80.148363 -21.683397 32.842346 85.220516 0.601758 8.963882 -6.048370 0.699437 -2.032999 0.025236 -0.007687 -0.000004 -0.000001 -0.000000 0.000002 -129.880746 -46.663815 -3.983336 121.647418 12.025506 -14.547721 24.697112 2.623801 28.764064 0.005145 0.000152 -0.000371 0.000000 0.000000 0.000003 
